# xmcd
#
# Track frame offsets:
#	150
#	12183
#	25177
#	40243
#	58495
#	68040
#	94831
#	107433
#	125038
#	138886
#
# Disc length: 2250 seconds
#
# Revision: 1
# Processed by: cddbd v1.5.2PL0 Copyright (c) Steve Scherf et al.
# Submitted via: audiograbber 1.83.01
#
DISCID=8508c80a
DTITLE=Down and Out - Tres Wierdos
DYEAR=1900
DGENRE=
TTITLE0=King Size Boogie
TTITLE1=Hot Dawg Boogie
TTITLE2=Let It All Go
TTITLE3=Fine  Lookin' Woman Blues
TTITLE4=Zombie Soup
TTITLE5=Voodoo Dildo
TTITLE6=Watch Your Step
TTITLE7=Snack In
TTITLE8=American Bandit
TTITLE9=Kentucky Straight Bourbon Boogie
EXTD=
EXTT0=
EXTT1=
EXTT2=
EXTT3=
EXTT4=
EXTT5=
EXTT6=
EXTT7=
EXTT8=
EXTT9=
PLAYORDER=
